<svg width="25" height="26" viewBox="0 0 25 26" fill="none" xmlns="http://www.w3.org/2000/svg">
<path d="M13.437 12.9963L20.472 5.9544C20.5961 5.82968 20.6657 5.66085 20.6656 5.4849C20.6655 5.30894 20.5956 5.14021 20.4714 5.01565C20.2226 4.76815 19.7845 4.7669 19.5332 5.0169L12.5001 12.0588L5.46449 5.01502C5.21449 4.76815 4.77636 4.7694 4.52761 5.01627C4.46587 5.07777 4.41699 5.15095 4.38384 5.23154C4.35068 5.31212 4.3339 5.39851 4.33449 5.48565C4.33449 5.66315 4.40324 5.8294 4.52761 5.95252L11.5626 12.9956L4.52824 20.0394C4.4041 20.1643 4.33459 20.3334 4.33494 20.5095C4.33529 20.6856 4.40548 20.8544 4.53011 20.9788C4.65074 21.0981 4.82136 21.1669 4.99761 21.1669H5.00136C5.17824 21.1663 5.34886 21.0969 5.46699 20.9763L12.5001 13.9344L19.5357 20.9781C19.6601 21.1019 19.8264 21.1707 20.0026 21.1707C20.0898 21.1709 20.1761 21.1539 20.2567 21.1207C20.3372 21.0874 20.4104 21.0386 20.4721 20.977C20.5337 20.9153 20.5825 20.8421 20.6158 20.7616C20.649 20.681 20.666 20.5947 20.6657 20.5075C20.6657 20.3307 20.597 20.1638 20.472 20.0406L13.437 12.9963Z" fill="black"/>
</svg>
