<svg width="18" height="18" viewBox="0 0 18 18" fill="none" xmlns="http://www.w3.org/2000/svg">
<path d="M10.0605 9L12.1823 6.879C12.2519 6.80932 12.3072 6.72659 12.3449 6.63555C12.3826 6.5445 12.402 6.44692 12.402 6.34838C12.402 6.24983 12.3826 6.15225 12.3449 6.0612C12.3072 5.97016 12.2519 5.88743 12.1823 5.81775C12.1126 5.74807 12.0298 5.69279 11.9388 5.65508C11.8478 5.61737 11.7502 5.59796 11.6516 5.59796C11.5531 5.59796 11.4555 5.61737 11.3645 5.65508C11.2734 5.69279 11.1907 5.74807 11.121 5.81775L9 7.9395L6.879 5.81775C6.73827 5.67702 6.5474 5.59796 6.34838 5.59796C6.14935 5.59796 5.95848 5.67702 5.81775 5.81775C5.67702 5.95848 5.59796 6.14935 5.59796 6.34838C5.59796 6.44692 5.61737 6.5445 5.65508 6.63555C5.69279 6.72659 5.74807 6.80932 5.81775 6.879L7.9395 9L5.81775 11.121C5.67702 11.2617 5.59796 11.4526 5.59796 11.6516C5.59796 11.8506 5.67702 12.0415 5.81775 12.1823C5.95848 12.323 6.14935 12.402 6.34838 12.402C6.5474 12.402 6.73827 12.323 6.879 12.1823L9 10.0605L11.121 12.1823C11.2617 12.323 11.4526 12.402 11.6516 12.402C11.8506 12.402 12.0415 12.323 12.1823 12.1823C12.323 12.0415 12.402 11.8506 12.402 11.6516C12.402 11.4526 12.323 11.2617 12.1823 11.121L10.0605 9ZM9 16.5C4.85775 16.5 1.5 13.1423 1.5 9C1.5 4.85775 4.85775 1.5 9 1.5C13.1423 1.5 16.5 4.85775 16.5 9C16.5 13.1423 13.1423 16.5 9 16.5Z" fill="#373838"/>
</svg>
