<svg width="30" height="30" viewBox="0 0 30 30" fill="none" xmlns="http://www.w3.org/2000/svg">
<rect width="30" height="30" rx="3" fill="#47BDC3"/>
<g clip-path="url(#clip0)">
<path d="M17.2057 12.793C19.0728 14.662 19.0471 17.6586 17.2169 19.4989C17.2135 19.5027 17.2094 19.5067 17.2057 19.5105L15.1057 21.6105C13.2535 23.4627 10.2401 23.4624 8.38816 21.6105C6.53598 19.7586 6.53598 16.7449 8.38816 14.893L9.54773 13.7334C9.85523 13.4259 10.3848 13.6303 10.4007 14.0649C10.4209 14.6187 10.5202 15.1751 10.7035 15.7124C10.7655 15.8943 10.7212 16.0956 10.5853 16.2315L10.1763 16.6405C9.30048 17.5163 9.27301 18.9424 10.1402 19.8267C11.0159 20.7198 12.4554 20.7252 13.3379 19.8427L15.4379 17.743C16.3188 16.862 16.3151 15.4381 15.4379 14.5608C15.3222 14.4454 15.2057 14.3557 15.1147 14.293C15.0503 14.2488 14.9972 14.1902 14.9595 14.1218C14.9218 14.0534 14.9006 13.9771 14.8976 13.8991C14.8852 13.5689 15.0022 13.2286 15.2632 12.9677L15.9211 12.3097C16.0936 12.1372 16.3643 12.116 16.5644 12.2556C16.7935 12.4156 17.0081 12.5954 17.2057 12.793ZM21.6099 8.38856C19.758 6.53662 16.7446 6.53637 14.8924 8.38856L12.7924 10.4886C12.7886 10.4923 12.7846 10.4964 12.7811 10.5001C10.9509 12.3405 10.9253 15.337 12.7924 17.2061C12.99 17.4036 13.2046 17.5835 13.4337 17.7434C13.6337 17.8831 13.9044 17.8618 14.0769 17.6893L14.7349 17.0314C14.9958 16.7704 15.1128 16.4302 15.1004 16.0999C15.0974 16.0219 15.0762 15.9456 15.0385 15.8772C15.0009 15.8088 14.9477 15.7502 14.8833 15.706C14.7923 15.6433 14.6758 15.5537 14.5602 15.4382C13.6829 14.5609 13.6792 13.137 14.5602 12.256L16.6602 10.1563C17.5426 9.27387 18.982 9.27918 19.8578 10.1723C20.725 11.0567 20.6976 12.4827 19.8217 13.3585L19.4128 13.7675C19.2768 13.9034 19.2325 14.1047 19.2945 14.2866C19.4778 14.8239 19.5771 15.3803 19.5974 15.9342C19.6133 16.3687 20.1428 16.5731 20.4503 16.2656L21.6099 15.106C23.4621 13.2542 23.4621 10.2404 21.6099 8.38856Z" fill="white"/>
</g>
<defs>
<clipPath id="clip0">
<rect width="16" height="16" fill="white" transform="translate(7 7)"/>
</clipPath>
</defs>
</svg>
