<svg width="13" height="16" viewBox="0 0 13 16" fill="none" xmlns="http://www.w3.org/2000/svg">
<path d="M11.744 14.497C11.934 14.4971 12.117 14.5693 12.2558 14.699C12.3947 14.8287 12.4791 15.0063 12.492 15.1959C12.505 15.3855 12.4455 15.5729 12.3256 15.7203C12.2057 15.8677 12.0343 15.9641 11.846 15.99L11.744 15.997H1.25002C1.05999 15.997 0.877074 15.9248 0.738224 15.7951C0.599373 15.6653 0.514942 15.4877 0.50199 15.2981C0.489038 15.1086 0.548531 14.9211 0.668448 14.7737C0.788365 14.6263 0.959765 14.5299 1.14802 14.504L1.25002 14.497H11.744ZM6.50401 2.34842e-05C6.68508 0.000272564 6.85994 0.0660165 6.99632 0.185119C7.1327 0.304221 7.22139 0.46864 7.24602 0.648023L7.25302 0.750023V10.943L10.219 7.97302C10.3459 7.84586 10.5142 7.76844 10.6933 7.75486C10.8724 7.74128 11.0504 7.79244 11.195 7.89902L11.28 7.97102C11.4073 8.09807 11.4847 8.26662 11.4981 8.44596C11.5115 8.62529 11.46 8.80347 11.353 8.94802L11.281 9.03202L7.03802 13.282L6.96802 13.345L6.87602 13.404L6.84002 13.425L6.74901 13.463L6.62901 13.493L6.55902 13.501L6.49901 13.503C6.44826 13.5029 6.39766 13.4976 6.34801 13.487L6.26801 13.464C6.17297 13.4334 6.08517 13.3838 6.01002 13.318L1.72002 9.03302C1.58548 8.89937 1.50657 8.71971 1.49917 8.53021C1.49177 8.34071 1.55644 8.15544 1.68015 8.0117C1.80386 7.86797 1.97743 7.77643 2.16592 7.75552C2.3544 7.73462 2.54381 7.78589 2.69602 7.89902L2.78002 7.97202L5.75302 10.939V0.749024C5.75302 0.550111 5.83203 0.359346 5.97268 0.218693C6.11334 0.0780411 6.3041 -0.000976562 6.50302 -0.000976562L6.50401 2.34842e-05Z" fill="white"/>
</svg>
