<svg width="20" height="21" viewBox="0 0 20 21" fill="none" xmlns="http://www.w3.org/2000/svg">
<g opacity="0.8">
<rect y="0.711914" width="20" height="20" rx="10" fill="#373838"/>
<path d="M14.2 6.51905C13.94 6.25905 13.52 6.25905 13.26 6.51905L9.99998 9.77238L6.73998 6.51238C6.47998 6.25238 6.05998 6.25238 5.79998 6.51238C5.53998 6.77238 5.53998 7.19238 5.79998 7.45238L9.05998 10.7124L5.79998 13.9724C5.53998 14.2324 5.53998 14.6524 5.79998 14.9124C6.05998 15.1724 6.47998 15.1724 6.73998 14.9124L9.99998 11.6524L13.26 14.9124C13.52 15.1724 13.94 15.1724 14.2 14.9124C14.46 14.6524 14.46 14.2324 14.2 13.9724L10.94 10.7124L14.2 7.45238C14.4533 7.19905 14.4533 6.77238 14.2 6.51905Z" fill="white"/>
</g>
</svg>
