<svg width="72" height="70" viewBox="0 0 72 70" fill="none" xmlns="http://www.w3.org/2000/svg">
<path d="M35.9999 0.555542C16.3999 0.555542 0.444336 14.5111 0.444336 31.6667C0.444336 48.8222 16.3999 62.7778 35.9999 62.7778C39.6669 62.7735 43.3159 62.2651 46.8443 61.2667L59.1332 69.0889C59.4687 69.3041 59.8559 69.4252 60.2543 69.4393C60.6526 69.4535 61.0474 69.3603 61.3973 69.1694C61.7473 68.9785 62.0394 68.697 62.2432 68.3545C62.4469 68.0119 62.5548 67.6208 62.5555 67.2222V52.2667C65.336 49.5993 67.5548 46.4026 69.0814 42.8648C70.6079 39.327 71.4114 35.5196 71.4443 31.6667C71.5555 14.5111 55.5999 0.555542 35.9999 0.555542ZM33.6221 15.2889C33.5856 14.8567 33.6392 14.4217 33.7796 14.0113C33.9199 13.601 34.1439 13.2242 34.4374 12.9049C34.7309 12.5856 35.0875 12.3307 35.4846 12.1563C35.8817 11.9819 36.3106 11.8919 36.7443 11.8919C37.178 11.8919 37.607 11.9819 38.0041 12.1563C38.4012 12.3307 38.7578 12.5856 39.0513 12.9049C39.3448 13.2242 39.5688 13.601 39.7091 14.0113C39.8494 14.4217 39.903 14.8567 39.8666 15.2889V37C39.903 37.4321 39.8494 37.8672 39.7091 38.2775C39.5688 38.6879 39.3448 39.0647 39.0513 39.384C38.7578 39.7033 38.4012 39.9582 38.0041 40.1326C37.607 40.3069 37.178 40.397 36.7443 40.397C36.3106 40.397 35.8817 40.3069 35.4846 40.1326C35.0875 39.9582 34.7309 39.7033 34.4374 39.384C34.1439 39.0647 33.9199 38.6879 33.7796 38.2775C33.6392 37.8672 33.5856 37.4321 33.6221 37V15.2889ZM36.7554 53.8444C35.9336 53.8444 35.1301 53.6007 34.4467 53.1441C33.7634 52.6875 33.2307 52.0385 32.9162 51.2791C32.6017 50.5198 32.5194 49.6843 32.6797 48.8782C32.8401 48.0721 33.2359 47.3316 33.817 46.7505C34.3982 46.1693 35.1386 45.7735 35.9447 45.6132C36.7508 45.4528 37.5864 45.5351 38.3457 45.8496C39.105 46.1642 39.754 46.6968 40.2107 47.3802C40.6673 48.0635 40.911 48.867 40.911 49.6889C40.9051 50.7871 40.4647 51.8384 39.686 52.6129C38.9074 53.3875 37.8537 53.8222 36.7554 53.8222V53.8444Z" fill="#A9A9A9"/>
</svg>
