<svg width="72" height="70" viewBox="0 0 72 70" fill="none" xmlns="http://www.w3.org/2000/svg">
<path d="M36.5009 0.554688C16.9009 0.554688 0.945312 14.5102 0.945312 31.6658C0.945312 48.8214 16.9009 62.7769 36.5009 62.7769C40.1679 62.7727 43.8169 62.2642 47.3453 61.2658L59.6342 69.088C59.9697 69.3033 60.3569 69.4243 60.7552 69.4385C61.1536 69.4526 61.5484 69.3594 61.8983 69.1685C62.2482 68.9777 62.5404 68.6962 62.7441 68.3536C62.9479 68.011 63.0558 67.6199 63.0564 67.2214V52.2658C65.837 49.5984 68.0558 46.4018 69.5824 42.864C71.1089 39.3262 71.9123 35.5187 71.9453 31.6658C72.0564 14.5102 56.1009 0.554688 36.5009 0.554688ZM34.1231 15.288C34.0866 14.8559 34.1402 14.4208 34.2806 14.0105C34.4209 13.6001 34.6449 13.2234 34.9384 12.904C35.2319 12.5847 35.5884 12.3298 35.9855 12.1555C36.3826 11.9811 36.8116 11.891 37.2453 11.891C37.679 11.891 38.108 11.9811 38.5051 12.1555C38.9022 12.3298 39.2588 12.5847 39.5522 12.904C39.8457 13.2234 40.0697 13.6001 40.2101 14.0105C40.3504 14.4208 40.404 14.8559 40.3675 15.288V36.9991C40.404 37.4313 40.3504 37.8663 40.2101 38.2767C40.0697 38.687 39.8457 39.0638 39.5522 39.3831C39.2588 39.7024 38.9022 39.9573 38.5051 40.1317C38.108 40.3061 37.679 40.3961 37.2453 40.3961C36.8116 40.3961 36.3826 40.3061 35.9855 40.1317C35.5884 39.9573 35.2319 39.7024 34.9384 39.3831C34.6449 39.0638 34.4209 38.687 34.2806 38.2767C34.1402 37.8663 34.0866 37.4313 34.1231 36.9991V15.288ZM37.2564 53.8436C36.4345 53.8436 35.6311 53.5999 34.9477 53.1432C34.2643 52.6866 33.7317 52.0376 33.4172 51.2783C33.1027 50.519 33.0204 49.6834 33.1807 48.8773C33.3411 48.0712 33.7368 47.3308 34.318 46.7496C34.8992 46.1684 35.6396 45.7727 36.4457 45.6123C37.2518 45.452 38.0874 45.5343 38.8467 45.8488C39.606 46.1633 40.255 46.6959 40.7116 47.3793C41.1683 48.0627 41.412 48.8661 41.412 49.688C41.4061 50.7863 40.9657 51.8376 40.187 52.6121C39.4083 53.3866 38.3547 53.8214 37.2564 53.8214V53.8436Z" fill="#A9A9A9"/>
</svg>
