<svg width="44" height="44" viewBox="0 0 44 44" fill="none" xmlns="http://www.w3.org/2000/svg">
<mask id="mask0" mask-type="alpha" maskUnits="userSpaceOnUse" x="0" y="0" width="44" height="44">
<rect width="44" height="44" fill="#C4C4C4"/>
</mask>
<g mask="url(#mask0)">
<path d="M35.8287 30.114C33.5796 28.2127 32.2898 25.4337 32.2898 22.4897V18.3422C32.2898 13.1074 28.4011 8.77387 23.364 8.04795V6.4411C23.364 5.61847 22.6975 4.95356 21.8762 4.95356C21.0552 4.95356 20.3887 5.61847 20.3887 6.4411V8.04795C15.3499 8.77387 11.4629 13.1074 11.4629 18.3422V22.4897C11.4629 25.4337 10.1731 28.2127 7.91034 30.1257C7.33177 30.6211 7 31.3411 7 32.1027C7 33.5385 8.16775 34.7062 9.60326 34.7062H34.1491C35.5849 34.7062 36.7527 33.5385 36.7527 32.1027C36.7527 31.3411 36.4209 30.6211 35.8287 30.114Z" fill="#0E2B64"/>
<path d="M21.8768 40.6568C24.5711 40.6568 26.8248 38.7362 27.3424 36.1939H16.4113C16.9291 38.7362 19.1829 40.6568 21.8768 40.6568Z" fill="#0E2B64"/>
<ellipse cx="31.5" cy="15.5" rx="8.5" ry="8.5" fill="#47BDC3"/>
</g>
</svg>
