<svg width="150" height="150" viewBox="0 0 150 150" fill="none" xmlns="http://www.w3.org/2000/svg">
<path d="M150 75C150 57.3531 143.777 40.2713 132.427 26.7592C121.076 13.2472 105.324 4.17026 87.9421 1.12509C70.5599 -1.92008 52.6606 1.26152 37.3925 10.1103C22.1245 18.959 10.4656 32.9082 4.4666 49.5041C-1.53238 66.1001 -1.48724 84.2799 4.5941 100.846C10.6754 117.412 22.4035 131.303 37.7153 140.076C53.0271 148.849 70.942 151.941 88.3088 148.81C105.676 145.678 121.382 136.523 132.666 122.955L118.249 110.966C109.787 121.142 98.0068 128.009 84.9816 130.357C71.9565 132.706 58.5203 130.386 47.0365 123.807C35.5526 117.227 26.7566 106.809 22.1956 94.3844C17.6346 81.9599 17.6007 68.3251 22.1 55.8781C26.5992 43.4311 35.3433 32.9693 46.7944 26.3327C58.2454 19.6961 71.6699 17.3099 84.7066 19.5938C97.7432 21.8777 109.557 28.6854 118.07 38.8194C126.583 48.9535 131.25 61.7648 131.25 75H150Z" fill="white"/>
</svg>
