<svg width="81" height="80" viewBox="0 0 81 80" fill="none" xmlns="http://www.w3.org/2000/svg">
<g clip-path="url(#clip0)">
<path fill-rule="evenodd" clip-rule="evenodd" d="M40.5 75C49.7826 75 58.685 71.3125 65.2487 64.7487C71.8125 58.185 75.5 49.2826 75.5 40C75.5 30.7174 71.8125 21.815 65.2487 15.2513C58.685 8.68749 49.7826 5 40.5 5C31.2174 5 22.315 8.68749 15.7513 15.2513C9.18749 21.815 5.5 30.7174 5.5 40C5.5 49.2826 9.18749 58.185 15.7513 64.7487C22.315 71.3125 31.2174 75 40.5 75ZM40.5 80C51.1087 80 61.2828 75.7857 68.7843 68.2843C76.2857 60.7828 80.5 50.6087 80.5 40C80.5 29.3913 76.2857 19.2172 68.7843 11.7157C61.2828 4.21427 51.1087 0 40.5 0C29.8913 0 19.7172 4.21427 12.2157 11.7157C4.71427 19.2172 0.5 29.3913 0.5 40C0.5 50.6087 4.71427 60.7828 12.2157 68.2843C19.7172 75.7857 29.8913 80 40.5 80Z" fill="#0E2B64"/>
<path fill-rule="evenodd" clip-rule="evenodd" d="M55.3493 24.8504C56.0491 24.1568 56.9937 23.7664 57.979 23.7637C58.9643 23.761 59.911 24.1461 60.6146 24.8359C61.3182 25.5257 61.722 26.4646 61.7388 27.4498C61.7556 28.4349 61.384 29.3871 60.7043 30.1004L40.7443 55.0504C40.4013 55.4199 39.9872 55.7164 39.527 55.9222C39.0667 56.1281 38.5697 56.239 38.0656 56.2483C37.5615 56.2576 37.0607 56.1652 36.5931 55.9766C36.1255 55.7879 35.7008 55.507 35.3443 55.1504L22.1193 41.9204C21.7509 41.5771 21.4554 41.1631 21.2504 40.7031C21.0455 40.2431 20.9352 39.7465 20.9264 39.243C20.9175 38.7395 21.0101 38.2394 21.1987 37.7724C21.3873 37.3055 21.668 36.8813 22.0241 36.5252C22.3802 36.1691 22.8044 35.8884 23.2713 35.6998C23.7383 35.5112 24.2384 35.4186 24.7419 35.4275C25.2455 35.4363 25.742 35.5466 26.202 35.7515C26.662 35.9565 27.076 36.252 27.4193 36.6204L37.8893 47.0854L55.2543 24.9604C55.2853 24.9217 55.3187 24.885 55.3543 24.8504H55.3493Z" fill="#0E2B64"/>
</g>
<defs>
<clipPath id="clip0">
<rect width="80" height="80" fill="white" transform="translate(0.5)"/>
</clipPath>
</defs>
</svg>
