<svg xmlns="http://www.w3.org/2000/svg" width="40.5" height="31.5" viewBox="0 0 40.5 31.5">
    <path fill="#000f34" d="M37.125 2.25H3.375A3.376 3.376 0 0 0 0 5.625V6.75h40.5V5.625a3.376 3.376 0 0 0-3.375-3.375zM0 30.375a3.376 3.376 0 0 0 3.375 3.375h33.75a3.376 3.376 0 0 0 3.375-3.375V9H0zm24.75-16.312a.564.564 0 0 1 .563-.562h10.125a.564.564 0 0 1 .563.563v1.125a.564.564 0 0 1-.562.563H25.313a.564.564 0 0 1-.562-.562zm0 4.5a.564.564 0 0 1 .563-.563h10.125a.564.564 0 0 1 .563.563v1.125a.564.564 0 0 1-.562.563H25.313a.564.564 0 0 1-.562-.562zm0 4.5a.564.564 0 0 1 .563-.562h10.125a.564.564 0 0 1 .563.563v1.125a.564.564 0 0 1-.562.563H25.313a.564.564 0 0 1-.562-.562zM12.375 13.5a4.5 4.5 0 1 1-4.5 4.5 4.5 4.5 0 0 1 4.5-4.5zM4.718 27.858A4.506 4.506 0 0 1 9 24.75h.577a7.242 7.242 0 0 0 5.6 0h.577a4.506 4.506 0 0 1 4.282 3.108 1.107 1.107 0 0 1-1.1 1.392H5.815a1.11 1.11 0 0 1-1.097-1.392z" transform="translate(0 -2.25)"/>
</svg>
