<svg width="99" height="31" viewBox="0 0 99 31" fill="none" xmlns="http://www.w3.org/2000/svg">
<g clip-path="url(#clip0)">
<path d="M6.55088 27.1007L0.0986075 24.1343V21.1813V18.2282L3.24002 16.7853C4.97366 15.9933 6.38794 15.3289 6.38794 15.3088C6.38794 15.2886 4.97366 14.6242 3.24653 13.8256L0.0986075 12.3826L0.0790551 9.28864C0.0660203 6.86582 0.0855726 6.18125 0.14423 6.13427C0.313683 6.00005 13.0097 0.208099 13.1335 0.208099C13.2573 0.208099 25.9533 6.00005 26.1228 6.13427C26.1814 6.18125 26.201 6.86582 26.1879 9.28864L26.1684 12.3826L23.027 13.8256C21.2933 14.6242 19.8791 15.2886 19.8791 15.3088C19.8791 15.3289 21.2933 15.9933 23.027 16.7853L26.1684 18.2282V21.1813V24.1343L19.7161 27.1007C16.1641 28.7316 13.2052 30.0672 13.1335 30.0672C13.0618 30.0672 10.1029 28.7316 6.55088 27.1007ZM12.7685 24.4363C12.7294 24.4094 11.2695 23.7316 9.51632 22.9262L6.32929 21.4631L3.65062 22.698C1.84528 23.5235 0.991498 23.9464 1.05015 23.9866C1.10229 24.0202 3.76793 25.2484 6.97451 26.7182L12.8076 29.396L12.8272 26.9396C12.8337 25.2282 12.8207 24.4631 12.7685 24.4363ZM19.3186 26.7115C22.5512 25.2282 25.2103 23.9933 25.2429 23.9732C25.269 23.9464 24.0828 23.3692 22.6099 22.698L19.9312 21.4698L16.6464 22.9665L13.3681 24.4698L13.3616 26.9396C13.3616 28.2953 13.3812 29.4027 13.4072 29.4027C13.4268 29.4027 16.0859 28.188 19.3186 26.7115ZM16.3531 22.5437C17.9043 21.8323 19.1752 21.2148 19.1687 21.1813C19.1621 21.1276 16.4183 19.839 13.2638 18.4027C13.1531 18.3558 12.5013 18.6376 10.1094 19.7316C8.44746 20.4967 7.09183 21.1477 7.09834 21.1813C7.09834 21.2215 8.45397 21.8725 10.1159 22.6309C13.0097 23.9598 13.14 24.0135 13.329 23.9262C13.4333 23.8792 14.7954 23.2551 16.3531 22.5437ZM3.01842 22.4162C4.31539 21.8188 5.44943 21.2953 5.52764 21.2551C5.67102 21.1745 5.4755 21.0739 3.18136 20.0202C1.79966 19.3826 0.65259 18.8658 0.633038 18.8658C0.606968 18.8658 0.587416 19.9061 0.587416 21.1813C0.587416 22.4564 0.606968 23.4967 0.626521 23.4967C0.646073 23.4967 1.72797 23.0068 3.01842 22.4162ZM25.6796 21.1813C25.6796 19.9061 25.66 18.8658 25.634 18.8658C25.5558 18.8658 20.5895 21.1678 20.6155 21.1947C20.6546 21.2349 25.5753 23.49 25.634 23.4967C25.66 23.4967 25.6796 22.4564 25.6796 21.1813ZM9.399 19.49C11.074 18.7182 12.4231 18.0739 12.397 18.047C12.3253 17.9799 7.157 15.6242 7.07879 15.6242C6.99407 15.6242 1.10229 18.3222 1.02408 18.3893C0.98498 18.4296 6.1859 20.8725 6.32277 20.8792C6.34232 20.8792 7.72402 20.2551 9.399 19.49ZM22.6229 19.6578C24.0893 18.9866 25.269 18.4162 25.2429 18.3893C25.1647 18.3222 19.2729 15.6242 19.1882 15.6242C19.11 15.6242 13.9417 17.9799 13.87 18.047C13.8309 18.0873 19.7487 20.8524 19.9051 20.8725C19.9377 20.8792 21.163 20.3289 22.6229 19.6578ZM15.8187 16.5705C17.2981 15.8927 18.5104 15.3289 18.5104 15.3088C18.5104 15.2618 13.2443 12.8591 13.1335 12.8591C13.0227 12.8591 7.75661 15.2618 7.75661 15.3088C7.76312 15.3356 13.0032 17.7651 13.1009 17.7853C13.1205 17.792 14.3392 17.2417 15.8187 16.5705ZM10.2528 13.5638C11.641 12.9262 12.775 12.3893 12.775 12.3625C12.775 12.3423 11.4064 11.698 9.73791 10.9329L6.7073 9.54367L3.83962 10.8591C2.26892 11.5839 0.991498 12.1947 1.01757 12.2148C1.03712 12.2349 2.40578 12.8725 4.06121 13.6376L7.07227 15.0202L7.39815 14.8725C7.58064 14.792 8.85806 14.2014 10.2528 13.5638ZM25.2429 12.2215C25.269 12.1947 24.0046 11.5839 22.4274 10.8591L19.5597 9.54367L16.5291 10.9329C14.8606 11.698 13.492 12.3423 13.492 12.3625C13.492 12.3893 14.7694 12.9933 16.3401 13.7115L19.1817 15.0202L22.1862 13.6443C23.8417 12.886 25.2168 12.2484 25.2429 12.2215ZM16.0077 10.6041C17.5458 9.89937 18.8232 9.30206 18.8493 9.28193C18.8949 9.23495 13.2704 6.63092 13.1335 6.63092C13.0944 6.63092 11.7779 7.21481 10.2137 7.93293C8.28452 8.81213 7.39163 9.25508 7.45029 9.29535C7.63278 9.41615 13.0097 11.8792 13.1074 11.8792C13.1661 11.886 14.4696 11.3088 16.0077 10.6041ZM3.31171 10.537C4.77162 9.86582 5.97734 9.30877 5.99038 9.29535C6.00341 9.28193 6.00341 9.25508 5.98386 9.23495C5.96431 9.21481 4.74555 8.64434 3.2726 7.96649L0.587416 6.73159V9.24166C0.587416 10.6242 0.600451 11.7517 0.620003 11.7517C0.639556 11.7517 1.8518 11.2014 3.31171 10.537ZM25.6796 9.24166V6.73159L22.9944 7.96649C21.5215 8.64434 20.2962 9.22152 20.2766 9.24166C20.2571 9.2685 20.2701 9.29535 20.3027 9.31548C20.3418 9.32891 21.541 9.87924 22.9748 10.5437C24.4087 11.2014 25.6014 11.745 25.634 11.7517C25.66 11.7517 25.6796 10.6242 25.6796 9.24166ZM9.81612 7.54367L12.8402 6.15441V3.51682C12.8402 2.06716 12.8272 0.87924 12.8141 0.87924C12.7555 0.87924 1.07622 6.25508 1.0306 6.30206C0.978463 6.35575 6.4857 8.9128 6.67471 8.92622C6.73988 8.92622 8.15417 8.30877 9.81612 7.54367ZM22.46 7.64434C24.0111 6.93293 25.2625 6.32891 25.2364 6.30206C25.1712 6.24166 13.4985 0.87924 13.4203 0.87924C13.3812 0.87924 13.3681 1.9128 13.3746 3.51011L13.3942 6.14099L16.4248 7.53696C18.0933 8.30206 19.4945 8.93293 19.5467 8.93293C19.5988 8.93293 20.9088 8.34904 22.46 7.64434Z" fill="#0D224B"/>
<path d="M75.576 29.2283C74.833 29.0403 74.2465 28.6981 73.6795 28.1007C73.0864 27.4833 72.7605 26.9128 72.5259 26.0806C72.402 25.6242 72.376 25.3893 72.376 24.5034C72.376 23.2954 72.4607 22.8994 72.8713 22.0336C73.3471 21.0269 74.1683 20.2887 75.2111 19.9195C75.941 19.6578 76.9903 19.5974 77.8246 19.7652C79.4148 20.094 80.5749 21.2081 81.0898 22.8927C81.2201 23.3356 81.2397 23.5303 81.2397 24.4699C81.2397 25.7115 81.1615 26.094 80.7379 26.9866C80.2295 28.0605 79.2128 28.8927 78.0396 29.2014C77.427 29.3625 76.1691 29.3759 75.576 29.2283ZM77.2901 28.0538C77.8637 27.9598 78.346 27.7115 78.724 27.3155C79.3171 26.6981 79.6168 25.9061 79.682 24.7719C79.7863 23.1276 79.1476 21.7517 78.0136 21.188C77.6095 20.9866 77.5508 20.9799 76.7752 20.9799C75.9801 20.9799 75.941 20.9866 75.5239 21.2014C74.5007 21.7182 73.9141 22.9128 73.9076 24.4564C73.9076 26.6511 74.9569 28.0135 76.7427 28.1209C76.8144 28.1209 77.062 28.094 77.2901 28.0538Z" fill="#0D224B"/>
<path d="M36.4326 24.5034V19.8725H38.7007C41.2099 19.8725 41.4902 19.9061 42.1875 20.2886C43.289 20.8927 43.843 21.9531 43.6605 23.1074C43.4845 24.2215 42.5329 25.1813 41.3077 25.4766C41.0079 25.5504 40.4865 25.5772 39.385 25.5772H37.8665V27.3557V29.1343H37.1495H36.4326V24.5034ZM41.0405 24.2014C41.7704 23.9799 42.1615 23.4698 42.168 22.7517C42.168 22.047 41.9073 21.6242 41.2946 21.3356C40.9818 21.188 40.871 21.1813 39.4176 21.1611L37.8665 21.141V22.7182V24.3021H39.2873C40.3561 24.3021 40.7928 24.2752 41.0405 24.2014Z" fill="#0D224B"/>
<path d="M47.206 29.0873L44.0581 29.0672V24.4698V19.8725H44.775H45.4919V23.8658V27.8591H47.9946H50.5039L50.5234 28.1678C50.543 28.4564 50.6603 28.1947 52.3157 24.1947L54.0819 19.9061H54.9488H55.8091L57.7187 24.5034C58.7745 27.0336 59.6348 29.1074 59.6348 29.1141C59.6348 29.1276 59.3024 29.1343 58.9048 29.1343H58.1684L57.6991 28.0068L57.2299 26.886L54.9553 26.8658L52.6807 26.8524L52.2179 27.9732L51.7552 29.1007H51.0513C50.6668 29.1007 48.9332 29.094 47.206 29.0873ZM56.6368 25.5168C56.6368 25.4833 56.2588 24.537 55.796 23.4162L54.9553 21.3826L54.8575 21.6175C54.1471 23.3289 53.2477 25.537 53.2477 25.5504C53.2477 25.5638 54.0102 25.5772 54.9422 25.5772C55.9133 25.5772 56.6368 25.5504 56.6368 25.5168Z" fill="#0D224B"/>
<path d="M61.4137 29.0873L60.8076 29.0604V25.1074V21.1477H59.2434H57.6792V20.5101V19.8725H61.5245H65.3698V20.5101V21.1477H63.8056H62.2414V25.141C62.2414 28.9061 62.2349 29.1343 62.1306 29.1208C62.0654 29.1141 61.7396 29.094 61.4137 29.0873Z" fill="#0D224B"/>
<path d="M65.6958 24.5034V19.8725H69.0849H72.4739V20.5101V21.1477H69.8344H67.1948V22.49V23.8323H69.5085H71.8222V24.4698V25.1074H69.5085H67.1948V27.1208V29.1343H66.4453H65.6958V24.5034Z" fill="#0D224B"/>
<path d="M81.7939 24.4967V19.8591L84.1924 19.8859C86.7798 19.9195 86.8645 19.9262 87.6205 20.3222C88.0507 20.5437 88.6112 21.1074 88.8263 21.5168C88.9762 21.8188 88.9957 21.9262 88.9957 22.5571C88.9957 23.2349 88.9892 23.2819 88.7741 23.6846C88.4222 24.3557 87.7313 24.9195 86.9167 25.2014C86.8319 25.2282 86.8189 25.2685 86.8645 25.3289C86.9753 25.4698 89.2499 28.6242 89.4063 28.8524L89.5562 29.0672H88.6764H87.7965L86.4409 27.2215L85.0853 25.3826L84.1598 25.3759H83.2278V27.2551V29.1343H82.5109H81.7939V24.4967ZM86.6234 23.8591C87.3142 23.5168 87.614 22.9665 87.4641 22.2752C87.3729 21.8121 87.1969 21.5906 86.7602 21.3692L86.3887 21.1812L84.8115 21.1611L83.2278 21.141V22.6242V24.1074L84.7138 24.0873L86.1932 24.0672L86.6234 23.8591Z" fill="#0D224B"/>
<path d="M89.6802 24.5034V19.8725H90.547H91.4073L92.776 23.5638C93.532 25.5906 94.1707 27.2416 94.1968 27.2349C94.2294 27.2282 94.8615 25.5705 95.6045 23.5638L96.9602 19.9061L97.853 19.8859L98.7394 19.8658V24.4698V29.0671H98.0225H97.3056L97.2925 26L97.273 22.9262L96.1585 25.9799L95.044 29.0336L94.2033 29.0537L93.3625 29.0671L92.3588 26.2685C91.8049 24.7248 91.2965 23.3423 91.2378 23.1946C91.127 22.9329 91.1205 23.0269 91.1205 26.0336L91.114 29.1342H90.3971H89.6802V24.5034Z" fill="#0D224B"/>
<path d="M40.6365 17.1209C39.1897 16.9598 37.9318 16.3356 37.1758 15.4028C36.3481 14.3759 35.8201 13.2618 35.6507 12.1544C35.5269 11.3356 35.4161 11.4162 36.7261 11.4162H37.8666V11.7048C37.8666 12.4497 38.2772 13.4028 38.8507 13.9732C39.6068 14.7383 40.617 15.094 41.8423 15.0202C42.9567 14.9531 43.6867 14.6041 44.2211 13.8793C44.749 13.1679 44.9576 12.2887 44.7425 11.7048C44.3971 10.7786 42.9567 10.0001 41.2296 9.80544C39.6589 9.63095 38.1208 8.97994 37.1497 8.08061C35.5464 6.59068 35.7159 4.04706 37.5473 2.16787C38.1338 1.56384 38.7986 1.20813 39.7893 0.973235C40.5779 0.778604 42.3115 0.798739 43.1132 1.00008C44.2733 1.30209 45.0293 1.81887 45.6224 2.73833C46.2415 3.68464 46.7303 4.96652 46.7303 5.62424V5.84571H45.6289H44.534L44.4623 5.39605C44.2993 4.38934 43.628 3.46317 42.8394 3.16115C41.7706 2.75176 40.2585 2.86585 39.4764 3.41619C39.1506 3.65109 38.6878 4.3088 38.5835 4.69135C38.4988 5.02692 38.4988 5.6041 38.5966 5.93967C38.7725 6.53699 39.685 7.16786 40.7995 7.45645C41.0993 7.53699 41.7445 7.67122 42.2333 7.75846C43.3087 7.95309 43.9474 8.16115 44.8272 8.6041C45.3877 8.88598 45.5898 9.03363 46.0069 9.45645C46.8411 10.3088 47.2061 11.1611 47.2061 12.2215C47.1996 13.5571 46.6586 14.745 45.5963 15.7585C44.6578 16.6511 43.5498 17.0672 41.8748 17.141C41.4838 17.1611 40.9233 17.1544 40.6365 17.1209Z" fill="#0D224B"/>
<path d="M47.7729 8.89263V1.27518L51.2468 1.29531C54.5837 1.32216 54.7336 1.32887 55.2355 1.46981C57.5687 2.13424 58.9765 4.02014 58.8331 6.28189C58.7875 6.9933 58.6571 7.4631 58.3573 8.06041C57.9011 8.96645 57.1516 9.698 56.2131 10.1812C55.1963 10.6913 55.1507 10.698 52.4525 10.7316L50.0541 10.7517V13.6376V16.5168H48.9135H47.7729V8.89263ZM54.7597 8.48323C55.5548 8.17451 56.0567 7.73826 56.3369 7.12753C56.4542 6.86578 56.4738 6.698 56.4738 6.01343C56.4738 5.31545 56.4542 5.16108 56.3173 4.85907C56.0436 4.2282 55.3006 3.69128 54.4338 3.50336C54.2187 3.45638 53.3128 3.42954 52.0745 3.42954H50.0541V6.0537V8.67115L52.2244 8.65102C54.2383 8.62417 54.4143 8.61075 54.7597 8.48323Z" fill="#0D224B"/>
<path d="M59.3086 8.93292V1.34903H60.4165H61.5245V8.93292V16.5168H60.4165H59.3086V8.93292Z" fill="#0D224B"/>
<path d="M63.0234 8.92621V1.34232L66.2366 1.36245L69.4432 1.3893L70.0754 1.56379C71.7569 2.03359 73.0864 3.13426 73.9859 4.78527C75.1916 6.99332 75.2828 10.2551 74.2009 12.6041C73.3863 14.3826 72.1349 15.6041 70.5577 16.1544C69.5996 16.49 69.2868 16.5168 66.0476 16.5168H63.0234V8.92621ZM69.2346 14.2484C70.5381 13.8792 71.4962 12.9665 72.0502 11.5571C72.715 9.87252 72.6367 7.43628 71.8612 5.85909C71.2681 4.64433 70.4729 3.95977 69.2411 3.59064C68.9348 3.50339 68.4851 3.46983 67.0838 3.4497L65.3046 3.41614V8.93292V14.4497L67.0187 14.4229C68.4916 14.3893 68.7979 14.3692 69.2346 14.2484Z" fill="#0D224B"/>
<path d="M75.7979 8.93292V1.34903H80.9466H86.0954V2.3893V3.42957H82.0546H78.0138V5.54366V7.65775H81.8591H85.7044V8.69802V9.73829H81.8591H78.0138V12.0873V14.4363H82.1198H86.2258V15.4765V16.5168H81.0118H75.7979V8.93292Z" fill="#0D224B"/>
<path d="M87.0078 8.92621V1.34232L90.5468 1.36245C93.9684 1.3893 94.0988 1.39601 94.6006 1.53695C96.4646 2.07386 97.7094 3.3356 98.0027 4.99332C98.2829 6.60406 97.6377 8.26178 96.3277 9.30205C95.9497 9.60406 94.9525 10.141 94.7766 10.141C94.7179 10.141 94.6984 10.1812 94.7244 10.2416C94.744 10.302 95.663 11.698 96.7709 13.349C97.8789 15 98.8043 16.3893 98.8304 16.4363C98.8695 16.4967 98.5893 16.5168 97.5204 16.5168H96.1648L94.0857 13.4631L92.0132 10.4094H90.6511H89.2889V13.4631V16.5168H88.1484H87.0078V8.92621ZM93.8707 8.12755C94.3986 7.95977 95.0177 7.53695 95.2784 7.17453C95.5978 6.73158 95.6955 6.32889 95.663 5.61748C95.6434 5.10071 95.6108 4.95305 95.4479 4.65104C95.1546 4.09399 94.6136 3.71815 93.8381 3.53024C93.5187 3.45641 92.9582 3.42956 91.3615 3.42956H89.2889V5.84567V8.26178H91.368C93.2645 8.26178 93.4861 8.24836 93.8707 8.12755Z" fill="#0D224B"/>
</g>
<defs>
<clipPath id="clip0">
<rect width="99" height="30" fill="white" transform="translate(0 0.140991)"/>
</clipPath>
</defs>
</svg>
