<svg width="16" height="16" viewBox="0 0 16 16" fill="none" xmlns="http://www.w3.org/2000/svg">
<path d="M8.3862 5.63281H7.0202V7.76856H8.3862C8.7322 7.76856 9.0012 7.68156 9.1932 7.50781C9.3852 7.33406 9.48095 7.05856 9.48095 6.68106C9.48095 6.30356 9.38495 6.03456 9.1932 5.87381C9.00145 5.71306 8.7322 5.63281 8.3862 5.63281Z" fill="#3C64B1"/>
<path d="M8.00037 0.5C3.85837 0.5 0.500366 3.858 0.500366 8C0.500366 12.142 3.85837 15.5 8.00037 15.5C12.1426 15.5 15.5006 12.142 15.5006 8C15.5006 3.858 12.1426 0.5 8.00037 0.5ZM10.3499 8.48725C9.92512 8.84175 9.31862 9.0185 8.53062 9.0185H7.02037V11.627H5.51462V4.373H8.62912C9.34712 4.373 9.91962 4.56 10.3466 4.934C10.7734 5.308 10.9871 5.88725 10.9871 6.67125C10.9869 7.52725 10.7746 8.13275 10.3499 8.48725Z" fill="#3C64B1"/>
</svg>
