<svg width="80" height="80" viewBox="0 0 80 80" fill="none" xmlns="http://www.w3.org/2000/svg">
<g clip-path="url(#clip0)">
<path d="M50.001 32.4998H47.501V27.4997C47.501 21.9846 43.0159 17.4995 37.5008 17.4995C31.9857 17.4995 27.5006 21.9846 27.5006 27.4997V32.4998H25.0005C23.6205 32.4998 22.5005 33.6198 22.5005 34.9999V55.0002C22.5005 56.3803 23.6205 57.5003 25.0005 57.5003H50.001C51.381 57.5003 52.5011 56.3803 52.5011 55.0002V34.9999C52.5011 33.6198 51.381 32.4998 50.001 32.4998ZM42.5009 32.4998H32.5007V27.4997C32.5007 24.7447 34.7457 22.4996 37.5008 22.4996C40.2558 22.4996 42.5009 24.7447 42.5009 27.4997V32.4998Z" fill="#0E2B64"/>
<path d="M78.4315 25.1795C77.1565 24.6695 75.6965 25.2895 75.1865 26.5745L73.6914 30.3146C69.4014 14.3193 54.8261 2.49902 37.5007 2.49902C16.8203 2.49902 0 19.3194 0 39.9998C0 60.6802 16.8203 77.5005 37.5007 77.5005C47.5159 77.5005 56.9361 73.6004 64.0212 66.5203C64.9963 65.5453 64.9963 63.9602 64.0212 62.9852C63.0462 62.0102 61.4612 62.0102 60.4862 62.9852C54.3411 69.1203 46.1809 72.5004 37.5007 72.5004C19.5804 72.5004 5.0001 57.9201 5.0001 39.9998C5.0001 22.0794 19.5804 7.49912 37.5007 7.49912C53.106 7.49912 66.1713 18.5593 69.2864 33.2496L64.2713 28.2295C63.2962 27.2545 61.7112 27.2545 60.7362 28.2295C59.7612 29.2045 59.7612 30.7896 60.7362 31.7646L70.7364 41.7648C71.2064 42.2448 71.8464 42.4998 72.5014 42.4998C72.6664 42.4998 72.8364 42.4848 73.0064 42.4498C73.8314 42.2798 74.5115 41.7098 74.8215 40.9298L79.8216 28.4295C80.3316 27.1445 79.7116 25.6895 78.4315 25.1795Z" fill="#0E2B64"/>
</g>
<defs>
<clipPath id="clip0">
<rect width="80" height="80" fill="white"/>
</clipPath>
</defs>
</svg>
