<svg width="26" height="26" viewBox="0 0 26 26" fill="none" xmlns="http://www.w3.org/2000/svg">
<path d="M13.5469 13.7471H12.0469V9.24707H13.5469V13.7471ZM13.5469 16.7471H12.0469V15.2471H13.5469V16.7471ZM12.7969 5.49707C11.812 5.49707 10.8367 5.69106 9.92675 6.06797C9.01681 6.44488 8.19001 6.99733 7.49357 7.69377C6.08705 9.10029 5.29688 11.0079 5.29688 12.9971C5.29688 14.9862 6.08705 16.8938 7.49357 18.3004C8.19001 18.9968 9.01681 19.5493 9.92675 19.9262C10.8367 20.3031 11.812 20.4971 12.7969 20.4971C14.786 20.4971 16.6937 19.7069 18.1002 18.3004C19.5067 16.8938 20.2969 14.9862 20.2969 12.9971C20.2969 12.0122 20.1029 11.0369 19.726 10.1269C19.3491 9.217 18.7966 8.39021 18.1002 7.69377C17.4037 6.99733 16.5769 6.44488 15.667 6.06797C14.7571 5.69106 13.7818 5.49707 12.7969 5.49707Z" fill="#FE4747"/>
</svg>
