<svg width="18" height="18" viewBox="0 0 18 18" fill="none" xmlns="http://www.w3.org/2000/svg">
<rect width="18" height="18" rx="2" fill="#538CFF"/>
<path d="M14.3274 4.4663C14.4042 4.38796 14.4958 4.32573 14.597 4.28324C14.6981 4.24076 14.8067 4.21887 14.9164 4.21887C15.0261 4.21887 15.1346 4.24076 15.2358 4.28324C15.3369 4.32573 15.4285 4.38796 15.5053 4.4663C15.8271 4.79142 15.8316 5.3168 15.5166 5.64755L8.86443 13.5113C8.7889 13.5942 8.69725 13.6609 8.59508 13.7072C8.49291 13.7535 8.38236 13.7784 8.27021 13.7806C8.15806 13.7827 8.04666 13.7619 7.94282 13.7194C7.83898 13.677 7.74489 13.6138 7.6663 13.5338L3.61855 9.43205C3.46245 9.27284 3.375 9.05877 3.375 8.8358C3.375 8.61283 3.46245 8.39875 3.61855 8.23955C3.69533 8.16121 3.78696 8.09898 3.88809 8.05649C3.98922 8.014 4.0978 7.99212 4.20749 7.99212C4.31718 7.99212 4.42577 8.014 4.52689 8.05649C4.62802 8.09898 4.71965 8.16121 4.79643 8.23955L8.22993 11.7192L14.3049 4.49105C14.3119 4.48235 14.3194 4.47409 14.3274 4.4663Z" fill="white"/>
</svg>
