<svg width="15" height="20" viewBox="0 0 15 20" fill="none" xmlns="http://www.w3.org/2000/svg">
<path d="M2.10603 6.22971C1.8434 4.49996 3.06303 2.94621 4.92615 2.37696C5.25678 2.27587 5.61351 2.30465 5.92366 2.45742C6.2338 2.6102 6.47403 2.87548 6.5954 3.19921L7.19353 4.79421C7.28981 5.0508 7.30722 5.33031 7.24352 5.59687C7.17982 5.86343 7.03792 6.10487 6.83602 6.29021L5.05678 7.91958C4.96907 8.00007 4.90372 8.1019 4.86709 8.21516C4.83046 8.32842 4.82381 8.44924 4.84778 8.56583L4.86427 8.63733L4.9069 8.81608C5.12817 9.6846 5.46533 10.5194 5.90928 11.298C6.39288 12.1253 6.99303 12.8787 7.69128 13.5351L7.74627 13.5846C7.8351 13.6634 7.94284 13.7179 8.05899 13.7427C8.17513 13.7676 8.29573 13.7619 8.40903 13.7262L10.7094 13.0016C10.9708 12.9195 11.2508 12.9174 11.5135 12.9956C11.7761 13.0737 12.0094 13.2285 12.1834 13.4402L13.2724 14.7616C13.7261 15.3116 13.6712 16.1201 13.15 16.6055C11.7242 17.9351 9.7634 18.2073 8.3994 17.1115C6.72744 15.7628 5.31796 14.1179 4.2414 12.2591C3.1561 10.4016 2.43116 8.35605 2.10465 6.22971H2.10603ZM6.29015 8.65658L7.76415 7.30358C8.16818 6.93307 8.45224 6.45026 8.57989 5.91714C8.70754 5.38401 8.67294 4.8249 8.48053 4.31158L7.88377 2.71658C7.6395 2.06517 7.15603 1.53142 6.5319 1.22407C5.90776 0.916732 5.18992 0.858934 4.52465 1.06246C2.21053 1.77058 0.352901 3.84546 0.746151 6.43733C1.02115 8.24683 1.65503 10.5486 3.0534 12.9521C4.21488 14.9564 5.73528 16.7299 7.53865 18.184C9.58465 19.8271 12.3154 19.2661 14.0891 17.6133C15.1424 16.6316 15.2496 15.0008 14.3353 13.8898L13.2463 12.5671C12.8979 12.1442 12.4312 11.8351 11.9059 11.6793C11.3807 11.5235 10.8209 11.5281 10.2983 11.6926L8.3884 12.2935C7.89528 11.785 7.46335 11.2206 7.1014 10.6118C6.75177 9.99633 6.4793 9.34009 6.29015 8.65796V8.65658Z" fill="white"/>
</svg>
