<svg width="17" height="14" viewBox="0 0 17 14" fill="none" xmlns="http://www.w3.org/2000/svg">
<path d="M15.1042 0.954901C15.2066 0.85045 15.3288 0.767472 15.4636 0.710825C15.5984 0.654178 15.7432 0.625 15.8895 0.625C16.0357 0.625 16.1805 0.654178 16.3153 0.710825C16.4502 0.767472 16.5723 0.85045 16.6747 0.954901C17.1037 1.3884 17.1097 2.0889 16.6897 2.5299L7.82021 13.0149C7.71951 13.1255 7.59731 13.2144 7.46108 13.2761C7.32485 13.3378 7.17746 13.3711 7.02792 13.3739C6.87839 13.3767 6.72985 13.349 6.5914 13.2924C6.45295 13.2358 6.3275 13.1516 6.22271 13.0449L0.825714 7.5759C0.61757 7.36363 0.500977 7.07819 0.500977 6.7809C0.500977 6.48361 0.61757 6.19817 0.825714 5.9859C0.928083 5.88145 1.05026 5.79847 1.1851 5.74182C1.31993 5.68518 1.46471 5.656 1.61096 5.656C1.75722 5.656 1.902 5.68518 2.03683 5.74182C2.17167 5.79847 2.29385 5.88145 2.39621 5.9859L6.97421 10.6254L15.0742 0.987901C15.0835 0.976309 15.0936 0.965289 15.1042 0.954901Z" fill="current"/>
</svg>
