<svg width="7" height="9" viewBox="0 0 7 9" fill="none" xmlns="http://www.w3.org/2000/svg">
<path d="M6.13174 4.67044C6.1825 4.6355 6.224 4.58874 6.25267 4.53419C6.28134 4.47964 6.29632 4.41895 6.29632 4.35732C6.29632 4.2957 6.28134 4.235 6.25267 4.18046C6.224 4.12591 6.1825 4.07915 6.13174 4.0442L1.1797 0.615867C1.12259 0.576184 1.05569 0.552913 0.986272 0.548583C0.916857 0.544251 0.847583 0.559027 0.785976 0.591302C0.72437 0.623579 0.672786 0.672121 0.63683 0.731655C0.600875 0.791189 0.581922 0.859439 0.582031 0.928988L0.582032 7.78566C0.582318 7.85505 0.601515 7.92305 0.637557 7.98234C0.673598 8.04163 0.725122 8.08998 0.786586 8.12218C0.848051 8.15438 0.917131 8.16922 0.986397 8.1651C1.05566 8.16097 1.12249 8.13805 1.1797 8.09878L6.13174 4.67044Z" fill="current"/>
</svg>
