<svg width="15" height="16" viewBox="0 0 15 16" fill="none" xmlns="http://www.w3.org/2000/svg">
<g clip-path="url(#clip0_9216_103536)">
<path fill-rule="evenodd" clip-rule="evenodd" d="M7.5 14.5625C9.24048 14.5625 10.9097 13.8711 12.1404 12.6404C13.3711 11.4097 14.0625 9.74048 14.0625 8C14.0625 6.25952 13.3711 4.59032 12.1404 3.35961C10.9097 2.1289 9.24048 1.4375 7.5 1.4375C5.75952 1.4375 4.09032 2.1289 2.85961 3.35961C1.6289 4.59032 0.9375 6.25952 0.9375 8C0.9375 9.74048 1.6289 11.4097 2.85961 12.6404C4.09032 13.8711 5.75952 14.5625 7.5 14.5625ZM7.5 15.5C9.48912 15.5 11.3968 14.7098 12.8033 13.3033C14.2098 11.8968 15 9.98912 15 8C15 6.01088 14.2098 4.10322 12.8033 2.6967C11.3968 1.29018 9.48912 0.5 7.5 0.5C5.51088 0.5 3.60322 1.29018 2.1967 2.6967C0.790176 4.10322 0 6.01088 0 8C0 9.98912 0.790176 11.8968 2.1967 13.3033C3.60322 14.7098 5.51088 15.5 7.5 15.5Z" fill="black"/>
<path fill-rule="evenodd" clip-rule="evenodd" d="M4.01708 12.1559C4.12474 12.2181 4.25268 12.2349 4.37276 12.2028C4.49284 12.1706 4.59523 12.092 4.65739 11.9844C4.94531 11.4853 5.35963 11.0709 5.85863 10.7829C6.35764 10.4949 6.92373 10.3434 7.49989 10.3438C8.71395 10.3438 9.77426 11.0028 10.3424 11.9844C10.405 12.0912 10.5073 12.1688 10.627 12.2005C10.7466 12.2321 10.874 12.2151 10.9812 12.1533C11.0883 12.0914 11.1667 11.9896 11.1991 11.8701C11.2316 11.7507 11.2154 11.6232 11.1543 11.5156C10.7841 10.874 10.2514 10.3413 9.60988 9.971C8.96836 9.6007 8.24061 9.40591 7.49989 9.40625C6.7592 9.4061 6.03153 9.60097 5.39004 9.97125C4.74855 10.3415 4.21586 10.8742 3.84551 11.5156C3.78336 11.6233 3.76651 11.7512 3.79869 11.8713C3.83086 11.9914 3.90942 12.0938 4.01708 12.1559Z" fill="black"/>
<path d="M6.5625 6.59375C6.5625 7.37 6.1425 8 5.625 8C5.1075 8 4.6875 7.37 4.6875 6.59375C4.6875 5.8175 5.1075 5.1875 5.625 5.1875C6.1425 5.1875 6.5625 5.8175 6.5625 6.59375ZM10.3125 6.59375C10.3125 7.37 9.8925 8 9.375 8C8.8575 8 8.4375 7.37 8.4375 6.59375C8.4375 5.8175 8.8575 5.1875 9.375 5.1875C9.8925 5.1875 10.3125 5.8175 10.3125 6.59375Z" fill="black"/>
<path fill-rule="evenodd" clip-rule="evenodd" d="M3.79929 4.50884C3.85499 4.39795 3.9524 4.31367 4.07014 4.27448C4.18789 4.23529 4.31637 4.24439 4.42742 4.29978L6.30242 5.23728C6.35941 5.26361 6.41053 5.30111 6.45275 5.34757C6.49497 5.39403 6.52743 5.4485 6.5482 5.50774C6.56897 5.56698 6.57762 5.62979 6.57366 5.69244C6.56969 5.75509 6.55318 5.81631 6.52511 5.87245C6.49703 5.9286 6.45797 5.97854 6.41022 6.0193C6.36248 6.06007 6.30704 6.09083 6.24719 6.10976C6.18733 6.12869 6.12428 6.1354 6.06179 6.1295C5.99929 6.1236 5.93861 6.1052 5.88336 6.07541L4.00836 5.13791C3.89746 5.08221 3.81318 4.98481 3.77399 4.86706C3.7348 4.74931 3.7439 4.62083 3.79929 4.50978V4.50884ZM11.1999 4.50884C11.1442 4.39795 11.0468 4.31367 10.9291 4.27448C10.8113 4.23529 10.6828 4.24439 10.5718 4.29978L8.69679 5.23728C8.63981 5.26361 8.58868 5.30111 8.54646 5.34757C8.50424 5.39403 8.47179 5.4485 8.45102 5.50774C8.43025 5.56698 8.42159 5.62979 8.42556 5.69244C8.42952 5.75509 8.44603 5.81631 8.47411 5.87245C8.50218 5.9286 8.54125 5.97854 8.58899 6.0193C8.63673 6.06007 8.69217 6.09083 8.75203 6.10976C8.81188 6.12869 8.87493 6.1354 8.93743 6.1295C8.99993 6.1236 9.0606 6.1052 9.11586 6.07541L10.9909 5.13791C11.1018 5.08221 11.186 4.98481 11.2252 4.86706C11.2644 4.74931 11.2553 4.62083 11.1999 4.50978V4.50884Z" fill="black"/>
</g>
<defs>
<clipPath id="clip0_9216_103536">
<rect width="15" height="15" fill="white" transform="translate(0 0.5)"/>
</clipPath>
</defs>
</svg>
