<svg width="18" height="18" viewBox="0 0 18 18" fill="none" xmlns="http://www.w3.org/2000/svg">
<path d="M15.6667 9.00002C15.6667 7.23191 14.9644 5.53622 13.7141 4.28598C12.4639 3.03573 10.7682 2.33335 9.00008 2.33335C7.23197 2.33335 5.53628 3.03573 4.28604 4.28598C3.03579 5.53622 2.33341 7.23191 2.33341 9.00002C2.33341 10.7681 3.03579 12.4638 4.28604 13.7141C5.53628 14.9643 7.23197 15.6667 9.00008 15.6667C10.7682 15.6667 12.4639 14.9643 13.7141 13.7141C14.9644 12.4638 15.6667 10.7681 15.6667 9.00002ZM17.3334 9.00002C17.3334 11.2102 16.4554 13.3298 14.8926 14.8926C13.3298 16.4554 11.2102 17.3334 9.00008 17.3334C7.90573 17.3334 6.8221 17.1178 5.81105 16.699C4.80001 16.2802 3.88135 15.6664 3.10752 14.8926C1.54472 13.3298 0.666748 11.2102 0.666748 9.00002C0.666748 6.78988 1.54472 4.67027 3.10752 3.10746C4.67033 1.54466 6.78994 0.666687 9.00008 0.666687C10.0944 0.666687 11.1781 0.882235 12.1891 1.30102C13.2002 1.71981 14.1188 2.33364 14.8926 3.10746C15.6665 3.88129 16.2803 4.79994 16.6991 5.81099C17.1179 6.82204 17.3334 7.90567 17.3334 9.00002ZM7.33342 6.91669C7.33342 7.58335 6.75008 8.16669 6.08342 8.16669C5.41675 8.16669 4.83342 7.58335 4.83342 6.91669C4.83342 6.25002 5.41675 5.66669 6.08342 5.66669C6.75008 5.66669 7.33342 6.25002 7.33342 6.91669ZM13.1667 6.91669C13.1667 7.58335 12.5834 8.16669 11.9167 8.16669C11.2501 8.16669 10.6667 7.58335 10.6667 6.91669C10.6667 6.25002 11.2501 5.66669 11.9167 5.66669C12.5834 5.66669 13.1667 6.25002 13.1667 6.91669ZM9.00008 13.3584C7.54175 13.3584 6.25841 12.75 5.50841 11.85L6.69175 10.6667C7.06675 11.2667 7.95842 11.6917 9.00008 11.6917C10.0417 11.6917 10.9334 11.2667 11.3084 10.6667L12.4917 11.85C11.7417 12.75 10.4584 13.3584 9.00008 13.3584Z" fill="white"/>
</svg>
