<svg width="15" height="16" viewBox="0 0 15 16" fill="none" xmlns="http://www.w3.org/2000/svg">
<g clip-path="url(#clip0_9216_103530)">
<path fill-rule="evenodd" clip-rule="evenodd" d="M7.5 14.5625C9.24048 14.5625 10.9097 13.8711 12.1404 12.6404C13.3711 11.4097 14.0625 9.74048 14.0625 8C14.0625 6.25952 13.3711 4.59032 12.1404 3.35961C10.9097 2.1289 9.24048 1.4375 7.5 1.4375C5.75952 1.4375 4.09032 2.1289 2.85961 3.35961C1.6289 4.59032 0.9375 6.25952 0.9375 8C0.9375 9.74048 1.6289 11.4097 2.85961 12.6404C4.09032 13.8711 5.75952 14.5625 7.5 14.5625ZM7.5 15.5C9.48912 15.5 11.3968 14.7098 12.8033 13.3033C14.2098 11.8968 15 9.98912 15 8C15 6.01088 14.2098 4.10322 12.8033 2.6967C11.3968 1.29018 9.48912 0.5 7.5 0.5C5.51088 0.5 3.60322 1.29018 2.1967 2.6967C0.790176 4.10322 0 6.01088 0 8C0 9.98912 0.790176 11.8968 2.1967 13.3033C3.60322 14.7098 5.51088 15.5 7.5 15.5Z" fill="black"/>
<path fill-rule="evenodd" clip-rule="evenodd" d="M3.75 10.3438C3.75 10.2194 3.79939 10.1002 3.88729 10.0123C3.9752 9.92439 4.09443 9.875 4.21875 9.875H10.7812C10.9056 9.875 11.0248 9.92439 11.1127 10.0123C11.2006 10.1002 11.25 10.2194 11.25 10.3438C11.25 10.4681 11.2006 10.5873 11.1127 10.6752C11.0248 10.7631 10.9056 10.8125 10.7812 10.8125H4.21875C4.09443 10.8125 3.9752 10.7631 3.88729 10.6752C3.79939 10.5873 3.75 10.4681 3.75 10.3438Z" fill="black"/>
<path d="M6.5625 6.59375C6.5625 7.37 6.1425 8 5.625 8C5.1075 8 4.6875 7.37 4.6875 6.59375C4.6875 5.8175 5.1075 5.1875 5.625 5.1875C6.1425 5.1875 6.5625 5.8175 6.5625 6.59375ZM10.3125 6.59375C10.3125 7.37 9.8925 8 9.375 8C8.8575 8 8.4375 7.37 8.4375 6.59375C8.4375 5.8175 8.8575 5.1875 9.375 5.1875C9.8925 5.1875 10.3125 5.8175 10.3125 6.59375Z" fill="black"/>
</g>
<defs>
<clipPath id="clip0_9216_103530">
<rect width="15" height="15" fill="white" transform="translate(0 0.5)"/>
</clipPath>
</defs>
</svg>
