<svg width="15" height="16" viewBox="0 0 15 16" fill="none" xmlns="http://www.w3.org/2000/svg">
<g clip-path="url(#clip0_9216_103524)">
<path fill-rule="evenodd" clip-rule="evenodd" d="M7.5 14.5625C9.24048 14.5625 10.9097 13.8711 12.1404 12.6404C13.3711 11.4097 14.0625 9.74048 14.0625 8C14.0625 6.25952 13.3711 4.59032 12.1404 3.35961C10.9097 2.1289 9.24048 1.4375 7.5 1.4375C5.75952 1.4375 4.09032 2.1289 2.85961 3.35961C1.6289 4.59032 0.9375 6.25952 0.9375 8C0.9375 9.74048 1.6289 11.4097 2.85961 12.6404C4.09032 13.8711 5.75952 14.5625 7.5 14.5625ZM7.5 15.5C9.48912 15.5 11.3968 14.7098 12.8033 13.3033C14.2098 11.8968 15 9.98912 15 8C15 6.01088 14.2098 4.10322 12.8033 2.6967C11.3968 1.29018 9.48912 0.5 7.5 0.5C5.51088 0.5 3.60322 1.29018 2.1967 2.6967C0.790176 4.10322 0 6.01088 0 8C0 9.98912 0.790176 11.8968 2.1967 13.3033C3.60322 14.7098 5.51088 15.5 7.5 15.5Z" fill="black"/>
<path fill-rule="evenodd" clip-rule="evenodd" d="M4.01708 9.46907C4.12474 9.40691 4.25268 9.39007 4.37276 9.42224C4.49284 9.45442 4.59523 9.53297 4.65739 9.64063C4.94531 10.1397 5.35963 10.5541 5.85863 10.8421C6.35764 11.1301 6.92373 11.2816 7.49989 11.2813C8.07605 11.2816 8.64213 11.1301 9.14114 10.8421C9.64015 10.5541 10.0545 10.1397 10.3424 9.64063C10.3729 9.58689 10.4138 9.53973 10.4627 9.50185C10.5115 9.46397 10.5674 9.43614 10.6271 9.41994C10.6867 9.40374 10.749 9.39951 10.8103 9.40747C10.8716 9.41544 10.9307 9.43546 10.9843 9.46637C11.0378 9.49728 11.0847 9.53847 11.1222 9.58758C11.1598 9.63669 11.1873 9.69274 11.2031 9.7525C11.2189 9.81227 11.2227 9.87457 11.2143 9.93582C11.2059 9.99706 11.1855 10.0561 11.1543 10.1094C10.7841 10.751 10.2514 11.2837 9.60988 11.654C8.96836 12.0243 8.24061 12.2191 7.49989 12.2188C6.75917 12.2191 6.03142 12.0243 5.3899 11.654C4.74838 11.2837 4.21571 10.751 3.84551 10.1094C3.78336 10.0017 3.76651 9.87378 3.79869 9.7537C3.83086 9.63361 3.90942 9.53123 4.01708 9.46907Z" fill="black"/>
<path d="M6.5625 6.59375C6.5625 7.37 6.1425 8 5.625 8C5.1075 8 4.6875 7.37 4.6875 6.59375C4.6875 5.8175 5.1075 5.1875 5.625 5.1875C6.1425 5.1875 6.5625 5.8175 6.5625 6.59375ZM10.3125 6.59375C10.3125 7.37 9.8925 8 9.375 8C8.8575 8 8.4375 7.37 8.4375 6.59375C8.4375 5.8175 8.8575 5.1875 9.375 5.1875C9.8925 5.1875 10.3125 5.8175 10.3125 6.59375Z" fill="black"/>
</g>
<defs>
<clipPath id="clip0_9216_103524">
<rect width="15" height="15" fill="white" transform="translate(0 0.5)"/>
</clipPath>
</defs>
</svg>
